# xmcd
#
# Track frame offsets:
# 150
# 22024
# 42483
# 60333
# 81844
# 98487
# 115806
# 131109
# 148585
# 160444
# 180306
# 197337
# 215197
# 234126
# 252246
# 268787
# 286404
# 298647
#
# Disc length: 4242 seconds
#
# Revision: 0
# Processed by: cddbd v1.5.1PL0 Copyright (c) Steve Scherf et al.
# Submitted via: Audion 3.0.2 (http://www.panic.com/audion/)
#
DISCID=06109012
DTITLE=Aaron Work Hits #6 - Aaron Work Hits #6
DYEAR=1900
DGENRE=
TTITLE0=Ozzy 
TTITLE1=Eifel 80
TTITLE2=Basement Jax wheres your head at
TTITLE3=bloodkon i phjo
TTITLE4=i wish is was
TTITLE5=why is s s
TTITLE6=why
TTITLE7=gold
TTITLE8=breaken the law
TTITLE9=dyer maker
TTITLE10=love will
TTITLE11=how cacan
TTITLE12=shes a rain bow
TTITLE13=by your side
TTITLE14=that dont
TTITLE15=sou
TTITLE16=cem
TTITLE17=you woman
EXTD=
EXTT0=
EXTT1=
EXTT2=
EXTT3=
EXTT4=
EXTT5=
EXTT6=
EXTT7=
EXTT8=
EXTT9=
EXTT10=
EXTT11=
EXTT12=
EXTT13=
EXTT14=
EXTT15=
EXTT16=
EXTT17=
PLAYORDER=
